<svg width="14" height="14" viewBox="0 0 14 14" fill="#ffffff" xmlns="http://www.w3.org/2000/svg">
<path d="M3.8484 1.61193C3.83671 1.59699 3.82177 1.5849 3.80471 1.57659C3.78766 1.56828 3.76893 1.56396 3.74996 1.56396C3.73099 1.56396 3.71227 1.56828 3.69521 1.57659C3.67816 1.5849 3.66322 1.59699 3.65152 1.61193L1.90152 3.82911C1.8359 3.91193 1.89527 4.03224 1.99996 4.03224H3.18746V12.3135C3.18746 12.3822 3.24371 12.4385 3.31246 12.4385H4.18746C4.25621 12.4385 4.31246 12.3822 4.31246 12.3135V4.03224H5.49996C5.60465 4.03224 5.66402 3.91036 5.5984 3.82911L3.8484 1.61193Z" fill="#BC1C24"/>
<path d="M10.3066 12.4258C10.2896 12.4175 10.2746 12.4055 10.2629 12.3905L8.51293 10.1733C8.4473 10.0921 8.50668 9.9702 8.61137 9.9702H9.79887L9.79887 1.68895C9.79887 1.6202 9.85512 1.56395 9.92387 1.56395H10.7989C10.8676 1.56395 10.9239 1.6202 10.9239 1.68895L10.9239 9.9702H12.1114C12.2161 9.9702 12.2754 10.0905 12.2098 10.1733L10.4598 12.3905C10.4481 12.4055 10.4332 12.4175 10.4161 12.4258C10.3991 12.4342 10.3803 12.4385 10.3614 12.4385C10.3424 12.4385 10.3237 12.4342 10.3066 12.4258Z" fill="#BC1C24"/>
</svg>
